# xmcd
#
# Track frame offsets: 
#        150
#        13899
#        29607
#        43741
#        54719
#        71187
#        88063
#        101931
#        116858
#        129388
#        141677
#        157678
#        166475
#        181234
#        198591
#        211553
#        224184
#        240214
#
# Disc length: 3459 seconds
#
# Revision: 0
# Processed by: cddbd v1.5.2PL0 Copyright (c) Steve Scherf et al.
# Submitted via: ExactAudioCopy v0.99pb4
#
DISCID=160d8112
DTITLE=Various Artist - All American Country Disc 3
DYEAR=1984
DGENRE=Corporate Country
TTITLE0=John Anderson - Swingin'
TTITLE1=Ronnie Milsap - He Got You
TTITLE2=Johnny Lee - Highways Run On Forever
TTITLE3=Eddy Raven - She's Playing Hard to Forget
TTITLE4=T. G. Sheppard and Karen Brooks - I Loved 'Em Every One
TTITLE5=Emmylou Harris - Born to Run
TTITLE6=The Wright Bros. - Made in the U.S.A.
TTITLE7=Diana - He's the Fire
TTITLE8=Hank Williams, Jr. - If Heaven Ain't a Lot Like Dixie
TTITLE9=Crystal Gayle - Baby What About You
TTITLE10=Gary Morris - The Love She Found In Me
TTITLE11=Gail Davies - Blue Heartache
TTITLE12=The Statler Brothers - Don't Wait On Me
TTITLE13=The Bellamy Brothers - When I'm Away From You
TTITLE14=T. G. Sheppard and Karen Brooks - Faking Love
TTITLE15=Susie Allanson - We Belong Together
TTITLE16=Steve Wariner - Kansas City Lights
TTITLE17=Conway Twitty - Heartache Tonight
EXTD=
EXTT0=
EXTT1=
EXTT2=
EXTT3=
EXTT4=
EXTT5=
EXTT6=
EXTT7=
EXTT8=
EXTT9=
EXTT10=
EXTT11=
EXTT12=
EXTT13=
EXTT14=
EXTT15=
EXTT16=
EXTT17=
PLAYORDER=
